# xmcd
#
# Track frame offsets: 
#        150
#        28817
#        52797
#        71644
#        87389
#        111842
#        144074
#
# Disc length: 2443 seconds
#
# Revision: 1
# Processed by: cddbd v1.5.2PL0 Copyright (c) Steve Scherf et al.
# Submitted via: ExactAudioCopyFreeDBPlugin 1.0
#
DISCID=56098907
DTITLE=Tadeusz Nalepa - Live 1986
DYEAR=1986
DGENRE=Blues
TTITLE0=Rzeka dzieciństwa
TTITLE1=Co się stało kwiatom
TTITLE2=Zasady gry
TTITLE3=Nauczyłem się niewiary
TTITLE4=Jest gdzieś taki dom
TTITLE5=Kiedy byłem małym chłopcem
TTITLE6=Modlitwa
EXTD=YEAR: 1993
EXTT0=
EXTT1=
EXTT2=
EXTT3=
EXTT4=
EXTT5=
EXTT6=
PLAYORDER=
